<svg width="32" height="32" viewBox="0 0 32 32" fill="none" xmlns="http://www.w3.org/2000/svg">
<path d="M20.6665 16.0003C23.9998 16.0003 26.6665 18.667 26.6665 22.0003C26.6665 23.1737 26.3332 24.2803 25.7465 25.2003L29.8532 29.3337L27.9998 31.187L23.8398 27.0937C22.9198 27.667 21.8265 28.0003 20.6665 28.0003C17.3332 28.0003 14.6665 25.3337 14.6665 22.0003C14.6665 18.667 17.3332 16.0003 20.6665 16.0003ZM20.6665 18.667C19.7824 18.667 18.9346 19.0182 18.3095 19.6433C17.6844 20.2684 17.3332 21.1163 17.3332 22.0003C17.3332 22.8844 17.6844 23.7322 18.3095 24.3573C18.9346 24.9825 19.7824 25.3337 20.6665 25.3337C21.5506 25.3337 22.3984 24.9825 23.0235 24.3573C23.6486 23.7322 23.9998 22.8844 23.9998 22.0003C23.9998 21.1163 23.6486 20.2684 23.0235 19.6433C22.3984 19.0182 21.5506 18.667 20.6665 18.667ZM18.6665 8.14699L10.6665 5.33366V21.187L11.9998 21.6537V22.0003C11.9998 22.8537 12.1198 23.6803 12.3465 24.4537L10.6665 23.867L3.5465 26.627L3.33317 26.667C3.15636 26.667 2.98679 26.5968 2.86177 26.4717C2.73674 26.3467 2.6665 26.1771 2.6665 26.0003V5.84033C2.6665 5.53366 2.8665 5.29366 3.1465 5.20033L10.6665 2.66699L18.6665 5.46699L25.7865 2.66699H25.9998C26.1766 2.66699 26.3462 2.73723 26.4712 2.86225C26.5963 2.98728 26.6665 3.15685 26.6665 3.33366V15.747C25.0543 14.1961 22.9035 13.331 20.6665 13.3337C19.9998 13.3337 19.3332 13.4137 18.6665 13.5603V8.14699Z" fill="black"/>
</svg>
