<svg width="1288" height="154" viewBox="0 0 1288 154" fill="none" xmlns="http://www.w3.org/2000/svg">
<rect opacity="0.5" x="6" y="20" width="1239.37" height="100" fill="#00CB90"/>
<path d="M1221.23 77.271L1222.45 79.2724C1217.95 81.6806 1214.92 83.8284 1213.37 85.7159C1212.36 86.9851 1211.87 88.1892 1211.9 89.3282C1211.92 90.4672 1212.79 91.8177 1214.48 93.3798C1216.21 94.9418 1217.39 96.2923 1218 97.4313C1218.44 98.2449 1218.67 99.1887 1218.7 100.263C1218.75 102.443 1218.02 104.314 1216.49 105.876C1214.96 107.438 1213.05 108.219 1210.74 108.219C1208.46 108.219 1206.52 107.389 1204.91 105.73C1203.34 104.038 1202.53 101.89 1202.47 99.2863C1202.37 95.251 1203.52 91.6224 1205.92 88.4007C1209.11 84.1701 1214.21 80.4602 1221.23 77.271ZM1242.76 77.271L1244.04 79.4189C1239.44 81.8596 1236.43 83.9586 1235.01 85.7159C1234.03 86.9525 1233.55 88.2054 1233.58 89.4746C1233.61 90.6462 1234.54 92.0455 1236.37 93.6726C1238.93 95.9181 1240.23 98.131 1240.28 100.311C1240.34 102.492 1239.58 104.396 1238.03 106.023C1236.5 107.617 1234.67 108.415 1232.52 108.415C1230.3 108.415 1228.35 107.536 1226.64 105.779C1224.94 103.989 1224.06 101.808 1224 99.2375C1223.9 95.2022 1225.18 91.4597 1227.83 88.0102C1231.18 83.5843 1236.16 80.0046 1242.76 77.271Z" fill="white" fill-opacity="0.75"/>
<path d="M32.2021 23.3061L33.4191 25.3089C28.9161 27.7119 25.8884 29.8562 24.3359 31.7419C23.3229 33.0099 22.8292 34.2134 22.8549 35.3525C22.8806 36.4915 23.7411 37.843 25.4365 39.4071C27.1644 40.9711 28.3342 42.323 28.9458 43.4627C29.3873 44.2768 29.6202 45.2208 29.6444 46.2948C29.6936 48.4752 28.9546 50.3456 27.4273 51.9059C25.9 53.4661 23.9808 54.245 21.6696 54.2423C19.391 54.2397 17.4517 53.4076 15.8517 51.746C14.2836 50.052 13.4702 47.9032 13.4115 45.2997C13.3205 41.2643 14.4756 37.6371 16.8769 34.4181C20.0693 30.1912 25.1776 26.4872 32.2021 23.3061ZM53.7352 23.331L55.0044 25.4803C50.4045 27.9157 47.3919 30.0113 45.9667 31.7669C44.9855 33.0024 44.5092 34.2548 44.5378 35.524C44.5643 36.6956 45.491 38.096 47.3181 39.7253C49.8752 41.9737 51.1784 44.1881 51.2276 46.3685C51.2767 48.549 50.5222 50.4519 48.9638 52.0772C47.4373 53.67 45.5998 54.4652 43.4513 54.4627C41.2378 54.4602 39.2811 53.5793 37.5813 51.82C35.8808 50.0281 35.0016 47.8467 34.9436 45.2758C34.8526 41.2404 36.1354 37.4994 38.7919 34.0529C42.1426 29.6309 47.1237 26.057 53.7352 23.331Z" fill="white" fill-opacity="0.75"/>
<path opacity="0.8" d="M22.5281 61.0835C22.4627 60.4246 22.1823 59.9128 21.6868 59.5479C21.1913 59.1831 20.5188 59.0007 19.6694 59.0007C19.0922 59.0007 18.6049 59.0824 18.2074 59.2457C17.8099 59.4036 17.505 59.6242 17.2926 59.9073C17.0857 60.1905 16.9822 60.5117 16.9822 60.8711C16.9714 61.1706 17.034 61.4319 17.1701 61.6552C17.3117 61.8784 17.505 62.0717 17.75 62.2351C17.995 62.393 18.2782 62.5318 18.5994 62.6516C18.9207 62.766 19.2637 62.864 19.6286 62.9457L21.1314 63.305C21.861 63.4684 22.5308 63.6862 23.1406 63.9585C23.7505 64.2307 24.2786 64.5656 24.7251 64.9631C25.1716 65.3606 25.5174 65.8288 25.7624 66.3679C26.0129 66.907 26.1409 67.525 26.1463 68.2219C26.1409 69.2456 25.8795 70.1332 25.3622 70.8846C24.8504 71.6306 24.1098 72.2105 23.1406 72.6243C22.1768 73.0327 21.0143 73.2369 19.6531 73.2369C18.3027 73.2369 17.1265 73.0299 16.1246 72.6161C15.1282 72.2023 14.3496 71.5897 13.7887 70.7784C13.2333 69.9616 12.942 68.9516 12.9148 67.7482H16.337C16.3751 68.3091 16.5357 68.7773 16.8189 69.1531C17.1075 69.5233 17.4914 69.8037 17.9705 69.9943C18.4551 70.1795 19.0024 70.272 19.6122 70.272C20.2112 70.272 20.7312 70.1849 21.1722 70.0107C21.6187 69.8364 21.9645 69.5941 22.2095 69.2837C22.4545 68.9734 22.5771 68.6167 22.5771 68.2138C22.5771 67.8381 22.4654 67.5223 22.2422 67.2663C22.0244 67.0104 21.7031 66.7926 21.2784 66.6129C20.8591 66.4332 20.3446 66.2699 19.7347 66.1229L17.9134 65.6655C16.5031 65.3224 15.3896 64.7861 14.5728 64.0565C13.756 63.3268 13.3504 62.344 13.3558 61.108C13.3504 60.0952 13.6199 59.2103 14.1644 58.4535C14.7144 57.6966 15.4685 57.1058 16.4268 56.6811C17.3852 56.2564 18.4742 56.044 19.6939 56.044C20.9354 56.044 22.0189 56.2564 22.9446 56.6811C23.8757 57.1058 24.5999 57.6966 25.1172 58.4535C25.6345 59.2103 25.9013 60.087 25.9176 61.0835H22.5281ZM43.8966 64.6364C43.8966 66.4605 43.5508 68.0123 42.8593 69.2919C42.1732 70.5715 41.2367 71.5489 40.0496 72.2241C38.868 72.8938 37.5394 73.2287 36.0638 73.2287C34.5773 73.2287 33.2433 72.8911 32.0617 72.2159C30.8801 71.5407 29.9463 70.5633 29.2602 69.2837C28.5741 68.0041 28.2311 66.455 28.2311 64.6364C28.2311 62.8123 28.5741 61.2604 29.2602 59.9808C29.9463 58.7012 30.8801 57.7266 32.0617 57.0568C33.2433 56.3816 34.5773 56.044 36.0638 56.044C37.5394 56.044 38.868 56.3816 40.0496 57.0568C41.2367 57.7266 42.1732 58.7012 42.8593 59.9808C43.5508 61.2604 43.8966 62.8123 43.8966 64.6364ZM40.311 64.6364C40.311 63.4548 40.134 62.4583 39.7801 61.647C39.4316 60.8357 38.9388 60.2204 38.3018 59.8011C37.6647 59.3819 36.9187 59.1722 36.0638 59.1722C35.209 59.1722 34.463 59.3819 33.8259 59.8011C33.1888 60.2204 32.6933 60.8357 32.3394 61.647C31.9909 62.4583 31.8167 63.4548 31.8167 64.6364C31.8167 65.8179 31.9909 66.8144 32.3394 67.6257C32.6933 68.437 33.1888 69.0523 33.8259 69.4716C34.463 69.8909 35.209 70.1005 36.0638 70.1005C36.9187 70.1005 37.6647 69.8909 38.3018 69.4716C38.9388 69.0523 39.4316 68.437 39.7801 67.6257C40.134 66.8144 40.311 65.8179 40.311 64.6364ZM46.5163 73V56.2727H50.0529V70.0842H57.2241V73H46.5163ZM69.8982 56.2727H73.4347V67.1357C73.4347 68.3554 73.1434 69.4226 72.5608 70.3374C71.9836 71.2521 71.175 71.9654 70.135 72.4773C69.095 72.9837 67.8835 73.2369 66.5004 73.2369C65.112 73.2369 63.8977 72.9837 62.8577 72.4773C61.8177 71.9654 61.0091 71.2521 60.4319 70.3374C59.8547 69.4226 59.5661 68.3554 59.5661 67.1357V56.2727H63.1027V66.8335C63.1027 67.4705 63.2416 68.0368 63.5193 68.5323C63.8024 69.0278 64.1999 69.4171 64.7117 69.7003C65.2236 69.9834 65.8198 70.125 66.5004 70.125C67.1865 70.125 67.7828 69.9834 68.2892 69.7003C68.801 69.4171 69.1958 69.0278 69.4735 68.5323C69.7566 68.0368 69.8982 67.4705 69.8982 66.8335V56.2727ZM85.4187 61.0835C85.3533 60.4246 85.0729 59.9128 84.5774 59.5479C84.0819 59.1831 83.4094 59.0007 82.56 59.0007C81.9828 59.0007 81.4955 59.0824 81.098 59.2457C80.7005 59.4036 80.3956 59.6242 80.1832 59.9073C79.9763 60.1905 79.8729 60.5117 79.8729 60.8711C79.862 61.1706 79.9246 61.4319 80.0607 61.6552C80.2023 61.8784 80.3956 62.0717 80.6406 62.2351C80.8857 62.393 81.1688 62.5318 81.4901 62.6516C81.8113 62.766 82.1544 62.864 82.5192 62.9457L84.022 63.305C84.7517 63.4684 85.4214 63.6862 86.0312 63.9585C86.6411 64.2307 87.1693 64.5656 87.6158 64.9631C88.0623 65.3606 88.408 65.8288 88.6531 66.3679C88.9035 66.907 89.0315 67.525 89.0369 68.2219C89.0315 69.2456 88.7701 70.1332 88.2528 70.8846C87.741 71.6306 87.0005 72.2105 86.0312 72.6243C85.0675 73.0327 83.9049 73.2369 82.5437 73.2369C81.1933 73.2369 80.0172 73.0299 79.0153 72.6161C78.0188 72.2023 77.2402 71.5897 76.6793 70.7784C76.1239 69.9616 75.8326 68.9516 75.8054 67.7482H79.2276C79.2657 68.3091 79.4264 68.7773 79.7095 69.1531C79.9981 69.5233 80.382 69.8037 80.8612 69.9943C81.3458 70.1795 81.893 70.272 82.5028 70.272C83.1018 70.272 83.6218 70.1849 84.0629 70.0107C84.5094 69.8364 84.8551 69.5941 85.1001 69.2837C85.3452 68.9734 85.4677 68.6167 85.4677 68.2138C85.4677 67.8381 85.3561 67.5223 85.1328 67.2663C84.915 67.0104 84.5938 66.7926 84.169 66.6129C83.7498 66.4332 83.2352 66.2699 82.6254 66.1229L80.804 65.6655C79.3937 65.3224 78.2802 64.7861 77.4634 64.0565C76.6467 63.3268 76.241 62.344 76.2464 61.108C76.241 60.0952 76.5105 59.2103 77.055 58.4535C77.605 57.6966 78.3591 57.1058 79.3175 56.6811C80.2758 56.2564 81.3648 56.044 82.5845 56.044C83.826 56.044 84.9096 56.2564 85.8352 56.6811C86.7663 57.1058 87.4905 57.6966 88.0078 58.4535C88.5251 59.2103 88.7919 60.087 88.8082 61.0835H85.4187ZM94.9523 56.2727V73H91.4157V56.2727H94.9523ZM103.185 73V56.2727H109.785C111.048 56.2727 112.126 56.4987 113.019 56.9506C113.918 57.3971 114.601 58.0315 115.069 58.8537C115.543 59.6705 115.78 60.6315 115.78 61.7369C115.78 62.8477 115.54 63.8033 115.061 64.6037C114.582 65.3987 113.888 66.0085 112.978 66.4332C112.074 66.858 110.98 67.0703 109.695 67.0703H105.276V64.228H109.123C109.798 64.228 110.359 64.1354 110.806 63.9503C111.252 63.7652 111.584 63.4875 111.802 63.1172C112.025 62.7469 112.137 62.2868 112.137 61.7369C112.137 61.1815 112.025 60.7132 111.802 60.332C111.584 59.9509 111.249 59.6623 110.797 59.4663C110.351 59.2648 109.787 59.1641 109.107 59.1641H106.722V73H103.185ZM112.219 65.3878L116.376 73H112.472L108.404 65.3878H112.219ZM128.611 56.2727H132.148V67.1357C132.148 68.3554 131.856 69.4226 131.274 70.3374C130.697 71.2521 129.888 71.9654 128.848 72.4773C127.808 72.9837 126.596 73.2369 125.213 73.2369C123.825 73.2369 122.611 72.9837 121.571 72.4773C120.531 71.9654 119.722 71.2521 119.145 70.3374C118.568 69.4226 118.279 68.3554 118.279 67.1357V56.2727H121.816V66.8335C121.816 67.4705 121.954 68.0368 122.232 68.5323C122.515 69.0278 122.913 69.4171 123.425 69.7003C123.936 69.9834 124.533 70.125 125.213 70.125C125.899 70.125 126.496 69.9834 127.002 69.7003C127.514 69.4171 127.909 69.0278 128.186 68.5323C128.469 68.0368 128.611 67.4705 128.611 66.8335V56.2727ZM135.057 56.2727H139.419L144.025 67.5114H144.221L148.828 56.2727H153.189V73H149.759V62.1126H149.62L145.291 72.9183H142.955L138.627 62.0717H138.488V73H135.057V56.2727ZM158.986 73H155.197L160.971 56.2727H165.529L171.295 73H167.505L163.315 60.0952H163.185L158.986 73ZM158.75 66.4251H167.701V69.1857H158.75V66.4251ZM173.308 73V56.2727H176.845V63.1744H184.024V56.2727H187.553V73H184.024V66.0902H176.845V73H173.308ZM204.866 61.0835C204.801 60.4246 204.52 59.9128 204.025 59.5479C203.529 59.1831 202.857 59.0007 202.007 59.0007C201.43 59.0007 200.943 59.0824 200.545 59.2457C200.148 59.4036 199.843 59.6242 199.631 59.9073C199.424 60.1905 199.32 60.5117 199.32 60.8711C199.309 61.1706 199.372 61.4319 199.508 61.6552C199.65 61.8784 199.843 62.0717 200.088 62.2351C200.333 62.393 200.616 62.5318 200.937 62.6516C201.259 62.766 201.602 62.864 201.966 62.9457L203.469 63.305C204.199 63.4684 204.869 63.6862 205.479 63.9585C206.088 64.2307 206.617 64.5656 207.063 64.9631C207.51 65.3606 207.855 65.8288 208.1 66.3679C208.351 66.907 208.479 67.525 208.484 68.2219C208.479 69.2456 208.217 70.1332 207.7 70.8846C207.188 71.6306 206.448 72.2105 205.479 72.6243C204.515 73.0327 203.352 73.2369 201.991 73.2369C200.641 73.2369 199.464 73.0299 198.463 72.6161C197.466 72.2023 196.687 71.5897 196.127 70.7784C195.571 69.9616 195.28 68.9516 195.253 67.7482H198.675C198.713 68.3091 198.874 68.7773 199.157 69.1531C199.445 69.5233 199.829 69.8037 200.308 69.9943C200.793 70.1795 201.34 70.272 201.95 70.272C202.549 70.272 203.069 70.1849 203.51 70.0107C203.957 69.8364 204.302 69.5941 204.547 69.2837C204.792 68.9734 204.915 68.6167 204.915 68.2138C204.915 67.8381 204.803 67.5223 204.58 67.2663C204.362 67.0104 204.041 66.7926 203.616 66.6129C203.197 66.4332 202.682 66.2699 202.073 66.1229L200.251 65.6655C198.841 65.3224 197.727 64.7861 196.911 64.0565C196.094 63.3268 195.688 62.344 195.694 61.108C195.688 60.0952 195.958 59.2103 196.502 58.4535C197.052 57.6966 197.806 57.1058 198.765 56.6811C199.723 56.2564 200.812 56.044 202.032 56.044C203.273 56.044 204.357 56.2564 205.282 56.6811C206.214 57.1058 206.938 57.6966 207.455 58.4535C207.972 59.2103 208.239 60.087 208.256 61.0835H204.866ZM210.863 73V56.2727H222.134V59.1886H214.4V63.1744H221.554V66.0902H214.4V70.0842H222.167V73H210.863ZM224.946 73V56.2727H228.483V63.1744H235.662V56.2727H239.19V73H235.662V66.0902H228.483V73H224.946ZM244.989 73H241.2L246.974 56.2727H251.532L257.298 73H253.508L249.318 60.0952H249.188L244.989 73ZM244.752 66.4251H253.704V69.1857H244.752V66.4251ZM256.63 59.1886V56.2727H270.368V59.1886H265.247V73H261.751V59.1886H256.63ZM276.974 56.2727H280.935L284.749 63.4766H284.913L288.727 56.2727H292.688L286.587 67.0866V73H283.075V67.0866L276.974 56.2727ZM295.796 73H292.006L297.781 56.2727H302.338L308.105 73H304.315L300.125 60.0952H299.994L295.796 73ZM295.559 66.4251H304.511V69.1857H295.559V66.4251ZM324.109 56.2727V73H321.054L313.777 62.4719H313.654V73H310.118V56.2727H313.222L320.442 66.7926H320.589V56.2727H324.109ZM338.123 61.6797C338.008 61.2822 337.848 60.931 337.641 60.6261C337.434 60.3157 337.181 60.0543 336.881 59.842C336.587 59.6242 336.249 59.4581 335.868 59.3438C335.493 59.2294 335.076 59.1722 334.619 59.1722C333.764 59.1722 333.012 59.3846 332.364 59.8093C331.722 60.234 331.221 60.852 330.862 61.6634C330.502 62.4692 330.323 63.4548 330.323 64.62C330.323 65.7853 330.499 66.7763 330.853 67.593C331.207 68.4098 331.708 69.0333 332.356 69.4634C333.004 69.8881 333.769 70.1005 334.651 70.1005C335.452 70.1005 336.135 69.9589 336.701 69.6758C337.273 69.3872 337.709 68.9815 338.008 68.4588C338.313 67.9361 338.466 67.3181 338.466 66.6048L339.184 66.7109H334.872V64.0483H341.872V66.1555C341.872 67.6257 341.561 68.889 340.94 69.9453C340.32 70.9962 339.465 71.8075 338.376 72.3793C337.287 72.9455 336.04 73.2287 334.635 73.2287C333.067 73.2287 331.689 72.8829 330.502 72.1914C329.315 71.4944 328.39 70.5062 327.725 69.2266C327.066 67.9415 326.737 66.4169 326.737 64.6527C326.737 63.2969 326.933 62.0881 327.325 61.0263C327.723 59.959 328.278 59.0552 328.991 58.3146C329.705 57.5741 330.535 57.0105 331.482 56.6239C332.43 56.2373 333.456 56.044 334.562 56.044C335.509 56.044 336.391 56.1829 337.208 56.4606C338.025 56.7328 338.749 57.1194 339.38 57.6204C340.017 58.1213 340.537 58.7176 340.94 59.4091C341.343 60.0952 341.602 60.852 341.716 61.6797H338.123ZM349.851 73V56.2727H356.451C357.714 56.2727 358.792 56.4987 359.685 56.9506C360.584 57.3971 361.267 58.0315 361.735 58.8537C362.209 59.6705 362.446 60.6315 362.446 61.7369C362.446 62.8477 362.206 63.8033 361.727 64.6037C361.248 65.3987 360.554 66.0085 359.644 66.4332C358.74 66.858 357.646 67.0703 356.361 67.0703H351.942V64.228H355.789C356.464 64.228 357.025 64.1354 357.472 63.9503C357.918 63.7652 358.25 63.4875 358.468 63.1172C358.691 62.7469 358.803 62.2868 358.803 61.7369C358.803 61.1815 358.691 60.7132 358.468 60.332C358.25 59.9509 357.915 59.6623 357.464 59.4663C357.017 59.2648 356.453 59.1641 355.773 59.1641H353.388V73H349.851ZM358.885 65.3878L363.042 73H359.138L355.07 65.3878H358.885ZM367.828 73H364.038L369.813 56.2727H374.37L380.137 73H376.347L372.157 60.0952H372.026L367.828 73ZM367.591 66.4251H376.543V69.1857H367.591V66.4251ZM382.15 56.2727H386.512L391.118 67.5114H391.314L395.921 56.2727H400.282V73H396.852V62.1126H396.713L392.384 72.9183H390.048L385.719 62.0717H385.581V73H382.15V56.2727ZM406.079 73H402.289L408.064 56.2727H412.621L418.388 73H414.598L410.408 60.0952H410.277L406.079 73ZM405.842 66.4251H414.794V69.1857H405.842V66.4251ZM420.401 73V56.2727H423.938V63.1744H431.117V56.2727H434.645V73H431.117V66.0902H423.938V73H420.401ZM442.884 73V56.2727H446.421V70.0842H453.592V73H442.884ZM459.471 56.2727V73H455.934V56.2727H459.471ZM476.372 56.2727V73H473.317L466.04 62.4719H465.917V73H462.381V56.2727H465.484L472.704 66.7926H472.851V56.2727H476.372ZM490.385 61.6797C490.271 61.2822 490.11 60.931 489.903 60.6261C489.696 60.3157 489.443 60.0543 489.144 59.842C488.85 59.6242 488.512 59.4581 488.131 59.3438C487.755 59.2294 487.339 59.1722 486.881 59.1722C486.027 59.1722 485.275 59.3846 484.627 59.8093C483.985 60.234 483.484 60.852 483.124 61.6634C482.765 62.4692 482.585 63.4548 482.585 64.62C482.585 65.7853 482.762 66.7763 483.116 67.593C483.47 68.4098 483.971 69.0333 484.619 69.4634C485.267 69.8881 486.032 70.1005 486.914 70.1005C487.714 70.1005 488.398 69.9589 488.964 69.6758C489.536 69.3872 489.971 68.9815 490.271 68.4588C490.576 67.9361 490.728 67.3181 490.728 66.6048L491.447 66.7109H487.135V64.0483H494.134V66.1555C494.134 67.6257 493.824 68.889 493.203 69.9453C492.582 70.9962 491.728 71.8075 490.638 72.3793C489.549 72.9455 488.303 73.2287 486.898 73.2287C485.33 73.2287 483.952 72.8829 482.765 72.1914C481.578 71.4944 480.652 70.5062 479.988 69.2266C479.329 67.9415 479 66.4169 479 64.6527C479 63.2969 479.196 62.0881 479.588 61.0263C479.985 59.959 480.541 59.0552 481.254 58.3146C481.967 57.5741 482.798 57.0105 483.745 56.6239C484.692 56.2373 485.719 56.044 486.824 56.044C487.772 56.044 488.654 56.1829 489.471 56.4606C490.287 56.7328 491.011 57.1194 491.643 57.6204C492.28 58.1213 492.8 58.7176 493.203 59.4091C493.606 60.0952 493.865 60.852 493.979 61.6797H490.385ZM496.791 73V56.2727H500.327V63.6481H500.548L506.567 56.2727H510.806L504.599 63.7624L510.88 73H506.649L502.067 66.1229L500.327 68.2464V73H496.791ZM522.98 56.2727H526.517V67.1357C526.517 68.3554 526.225 69.4226 525.643 70.3374C525.066 71.2521 524.257 71.9654 523.217 72.4773C522.177 72.9837 520.966 73.2369 519.582 73.2369C518.194 73.2369 516.98 72.9837 515.94 72.4773C514.9 71.9654 514.091 71.2521 513.514 70.3374C512.937 69.4226 512.648 68.3554 512.648 67.1357V56.2727H516.185V66.8335C516.185 67.4705 516.324 68.0368 516.601 68.5323C516.884 69.0278 517.282 69.4171 517.794 69.7003C518.306 69.9834 518.902 70.125 519.582 70.125C520.269 70.125 520.865 69.9834 521.371 69.7003C521.883 69.4171 522.278 69.0278 522.555 68.5323C522.839 68.0368 522.98 67.4705 522.98 66.8335V56.2727ZM543.418 56.2727V73H540.363L533.086 62.4719H532.963V73H529.426V56.2727H532.53L539.75 66.7926H539.897V56.2727H543.418ZM557.431 61.6797C557.317 61.2822 557.156 60.931 556.949 60.6261C556.742 60.3157 556.489 60.0543 556.19 59.842C555.896 59.6242 555.558 59.4581 555.177 59.3438C554.801 59.2294 554.385 59.1722 553.927 59.1722C553.072 59.1722 552.321 59.3846 551.673 59.8093C551.031 60.234 550.53 60.852 550.17 61.6634C549.811 62.4692 549.631 63.4548 549.631 64.62C549.631 65.7853 549.808 66.7763 550.162 67.593C550.516 68.4098 551.017 69.0333 551.665 69.4634C552.313 69.8881 553.078 70.1005 553.96 70.1005C554.76 70.1005 555.444 69.9589 556.01 69.6758C556.582 69.3872 557.017 68.9815 557.317 68.4588C557.622 67.9361 557.774 67.3181 557.774 66.6048L558.493 66.7109H554.18V64.0483H561.18V66.1555C561.18 67.6257 560.87 68.889 560.249 69.9453C559.628 70.9962 558.773 71.8075 557.684 72.3793C556.595 72.9455 555.348 73.2287 553.944 73.2287C552.375 73.2287 550.998 72.8829 549.811 72.1914C548.624 71.4944 547.698 70.5062 547.034 69.2266C546.375 67.9415 546.046 66.4169 546.046 64.6527C546.046 63.2969 546.242 62.0881 546.634 61.0263C547.031 59.959 547.586 59.0552 548.3 58.3146C549.013 57.5741 549.843 57.0105 550.791 56.6239C551.738 56.2373 552.765 56.044 553.87 56.044C554.818 56.044 555.7 56.1829 556.516 56.4606C557.333 56.7328 558.057 57.1194 558.689 57.6204C559.326 58.1213 559.846 58.7176 560.249 59.4091C560.652 60.0952 560.911 60.852 561.025 61.6797H557.431ZM566.203 73H562.413L568.188 56.2727H572.745L578.512 73H574.722L570.532 60.0952H570.401L566.203 73ZM565.966 66.4251H574.918V69.1857H565.966V66.4251ZM594.516 56.2727V73H591.462L584.184 62.4719H584.062V73H580.525V56.2727H583.629L590.849 66.7926H590.996V56.2727H594.516ZM608.691 73H602.761V56.2727H608.74C610.423 56.2727 611.871 56.6076 613.085 57.2773C614.3 57.9416 615.233 58.8973 615.887 60.1442C616.546 61.3911 616.875 62.883 616.875 64.62C616.875 66.3625 616.546 67.8598 615.887 69.1122C615.233 70.3646 614.294 71.3256 613.069 71.9954C611.849 72.6651 610.39 73 608.691 73ZM606.298 69.9698H608.544C609.59 69.9698 610.469 69.7847 611.182 69.4144C611.901 69.0387 612.44 68.4588 612.799 67.6747C613.164 66.8852 613.347 65.867 613.347 64.62C613.347 63.384 613.164 62.3739 612.799 61.5898C612.44 60.8058 611.904 60.2286 611.19 59.8583C610.477 59.488 609.598 59.3029 608.552 59.3029H606.298V69.9698ZM619.495 73V56.2727H630.766V59.1886H623.031V63.1744H630.186V66.0902H623.031V70.0842H630.799V73H619.495ZM647.569 56.2727V73H644.514L637.237 62.4719H637.114V73H633.578V56.2727H636.682L643.902 66.7926H644.049V56.2727H647.569ZM661.583 61.6797C661.468 61.2822 661.308 60.931 661.101 60.6261C660.894 60.3157 660.641 60.0543 660.341 59.842C660.047 59.6242 659.709 59.4581 659.328 59.3438C658.953 59.2294 658.536 59.1722 658.079 59.1722C657.224 59.1722 656.472 59.3846 655.824 59.8093C655.182 60.234 654.681 60.852 654.322 61.6634C653.962 62.4692 653.782 63.4548 653.782 64.62C653.782 65.7853 653.959 66.7763 654.313 67.593C654.667 68.4098 655.168 69.0333 655.816 69.4634C656.464 69.8881 657.229 70.1005 658.111 70.1005C658.912 70.1005 659.595 69.9589 660.161 69.6758C660.733 69.3872 661.169 68.9815 661.468 68.4588C661.773 67.9361 661.926 67.3181 661.926 66.6048L662.644 66.7109H658.332V64.0483H665.331V66.1555C665.331 67.6257 665.021 68.889 664.4 69.9453C663.78 70.9962 662.925 71.8075 661.836 72.3793C660.747 72.9455 659.5 73.2287 658.095 73.2287C656.527 73.2287 655.149 72.8829 653.962 72.1914C652.775 71.4944 651.849 70.5062 651.185 69.2266C650.526 67.9415 650.197 66.4169 650.197 64.6527C650.197 63.2969 650.393 62.0881 650.785 61.0263C651.182 59.959 651.738 59.0552 652.451 58.3146C653.164 57.5741 653.995 57.0105 654.942 56.6239C655.89 56.2373 656.916 56.044 658.021 56.044C658.969 56.044 659.851 56.1829 660.668 56.4606C661.485 56.7328 662.209 57.1194 662.84 57.6204C663.477 58.1213 663.997 58.7176 664.4 59.4091C664.803 60.0952 665.062 60.852 665.176 61.6797H661.583ZM670.355 73H666.565L672.339 56.2727H676.897L682.663 73H678.873L674.683 60.0952H674.553L670.355 73ZM670.118 66.4251H679.069V69.1857H670.118V66.4251ZM698.668 56.2727V73H695.613L688.336 62.4719H688.213V73H684.676V56.2727H687.78L695 66.7926H695.147V56.2727H698.668ZM715.987 61.0835C715.922 60.4246 715.641 59.9128 715.146 59.5479C714.65 59.1831 713.978 59.0007 713.128 59.0007C712.551 59.0007 712.064 59.0824 711.666 59.2457C711.269 59.4036 710.964 59.6242 710.752 59.9073C710.545 60.1905 710.441 60.5117 710.441 60.8711C710.43 61.1706 710.493 61.4319 710.629 61.6552C710.771 61.8784 710.964 62.0717 711.209 62.2351C711.454 62.393 711.737 62.5318 712.058 62.6516C712.38 62.766 712.723 62.864 713.088 62.9457L714.59 63.305C715.32 63.4684 715.99 63.6862 716.6 63.9585C717.209 64.2307 717.738 64.5656 718.184 64.9631C718.631 65.3606 718.976 65.8288 719.221 66.3679C719.472 66.907 719.6 67.525 719.605 68.2219C719.6 69.2456 719.338 70.1332 718.821 70.8846C718.309 71.6306 717.569 72.2105 716.6 72.6243C715.636 73.0327 714.473 73.2369 713.112 73.2369C711.762 73.2369 710.586 73.0299 709.584 72.6161C708.587 72.2023 707.809 71.5897 707.248 70.7784C706.692 69.9616 706.401 68.9516 706.374 67.7482H709.796C709.834 68.3091 709.995 68.7773 710.278 69.1531C710.566 69.5233 710.95 69.8037 711.43 69.9943C711.914 70.1795 712.461 70.272 713.071 70.272C713.67 70.272 714.19 70.1849 714.631 70.0107C715.078 69.8364 715.423 69.5941 715.669 69.2837C715.914 68.9734 716.036 68.6167 716.036 68.2138C716.036 67.8381 715.924 67.5223 715.701 67.2663C715.483 67.0104 715.162 66.7926 714.737 66.6129C714.318 66.4332 713.804 66.2699 713.194 66.1229L711.372 65.6655C709.962 65.3224 708.849 64.7861 708.032 64.0565C707.215 63.3268 706.809 62.344 706.815 61.108C706.809 60.0952 707.079 59.2103 707.623 58.4535C708.173 57.6966 708.927 57.1058 709.886 56.6811C710.844 56.2564 711.933 56.044 713.153 56.044C714.394 56.044 715.478 56.2564 716.404 56.6811C717.335 57.1058 718.059 57.6966 718.576 58.4535C719.093 59.2103 719.36 60.087 719.377 61.0835H715.987ZM725.521 56.2727V73H721.984V56.2727H725.521ZM737.505 61.0835C737.439 60.4246 737.159 59.9128 736.663 59.5479C736.168 59.1831 735.495 59.0007 734.646 59.0007C734.069 59.0007 733.581 59.0824 733.184 59.2457C732.786 59.4036 732.482 59.6242 732.269 59.9073C732.062 60.1905 731.959 60.5117 731.959 60.8711C731.948 61.1706 732.011 61.4319 732.147 61.6552C732.288 61.8784 732.482 62.0717 732.727 62.2351C732.972 62.393 733.255 62.5318 733.576 62.6516C733.897 62.766 734.24 62.864 734.605 62.9457L736.108 63.305C736.838 63.4684 737.507 63.6862 738.117 63.9585C738.727 64.2307 739.255 64.5656 739.702 64.9631C740.148 65.3606 740.494 65.8288 740.739 66.3679C740.989 66.907 741.117 67.525 741.123 68.2219C741.117 69.2456 740.856 70.1332 740.339 70.8846C739.827 71.6306 739.086 72.2105 738.117 72.6243C737.153 73.0327 735.991 73.2369 734.63 73.2369C733.279 73.2369 732.103 73.0299 731.101 72.6161C730.105 72.2023 729.326 71.5897 728.765 70.7784C728.21 69.9616 727.919 68.9516 727.891 67.7482H731.314C731.352 68.3091 731.512 68.7773 731.795 69.1531C732.084 69.5233 732.468 69.8037 732.947 69.9943C733.432 70.1795 733.979 70.272 734.589 70.272C735.188 70.272 735.708 70.1849 736.149 70.0107C736.595 69.8364 736.941 69.5941 737.186 69.2837C737.431 68.9734 737.554 68.6167 737.554 68.2138C737.554 67.8381 737.442 67.5223 737.219 67.2663C737.001 67.0104 736.68 66.7926 736.255 66.6129C735.836 66.4332 735.321 66.2699 734.711 66.1229L732.89 65.6655C731.48 65.3224 730.366 64.7861 729.549 64.0565C728.733 63.3268 728.327 62.344 728.332 61.108C728.327 60.0952 728.596 59.2103 729.141 58.4535C729.691 57.6966 730.445 57.1058 731.403 56.6811C732.362 56.2564 733.451 56.044 734.67 56.044C735.912 56.044 736.996 56.2564 737.921 56.6811C738.852 57.1058 739.576 57.6966 740.094 58.4535C740.611 59.2103 740.878 60.087 740.894 61.0835H737.505ZM742.865 59.1886V56.2727H756.603V59.1886H751.481V73H747.986V59.1886H742.865ZM758.865 73V56.2727H770.136V59.1886H762.402V63.1744H769.556V66.0902H762.402V70.0842H770.169V73H758.865ZM772.948 56.2727H777.309L781.916 67.5114H782.112L786.719 56.2727H791.08V73H787.65V62.1126H787.511L783.182 72.9183H780.846L776.517 62.0717H776.378V73H772.948V56.2727ZM799.317 73V56.2727H806.015C807.245 56.2727 808.272 56.4551 809.094 56.82C809.916 57.1848 810.534 57.6912 810.948 58.3391C811.362 58.9817 811.569 59.7222 811.569 60.5607C811.569 61.2141 811.438 61.7886 811.176 62.2841C810.915 62.7741 810.556 63.1771 810.098 63.4929C809.646 63.8033 809.129 64.0238 808.547 64.1545V64.3178C809.184 64.3451 809.78 64.5247 810.335 64.8569C810.896 65.189 811.351 65.6546 811.699 66.2536C812.048 66.8471 812.222 67.5549 812.222 68.3771C812.222 69.2647 812.001 70.0569 811.56 70.7539C811.125 71.4454 810.48 71.9927 809.625 72.3956C808.77 72.7985 807.716 73 806.464 73H799.317ZM802.854 70.1087H805.737C806.722 70.1087 807.441 69.9208 807.893 69.5451C808.345 69.1639 808.571 68.6576 808.571 68.0259C808.571 67.5631 808.459 67.1547 808.236 66.8008C808.013 66.4469 807.694 66.1692 807.281 65.9677C806.872 65.7662 806.385 65.6655 805.819 65.6655H802.854V70.1087ZM802.854 63.2724H805.475C805.96 63.2724 806.39 63.188 806.766 63.0192C807.147 62.8449 807.447 62.5999 807.664 62.2841C807.888 61.9683 807.999 61.5898 807.999 61.1488C807.999 60.5444 807.784 60.0571 807.354 59.6868C806.929 59.3165 806.325 59.1314 805.541 59.1314H802.854V63.2724ZM814.523 73V56.2727H825.794V59.1886H818.06V63.1744H825.215V66.0902H818.06V70.0842H825.827V73H814.523ZM828.606 73V56.2727H835.206C836.469 56.2727 837.547 56.4987 838.44 56.9506C839.338 57.3971 840.022 58.0315 840.49 58.8537C840.964 59.6705 841.201 60.6315 841.201 61.7369C841.201 62.8477 840.961 63.8033 840.482 64.6037C840.003 65.3987 839.308 66.0085 838.399 66.4332C837.495 66.858 836.401 67.0703 835.116 67.0703H830.697V64.228H834.544C835.219 64.228 835.78 64.1354 836.227 63.9503C836.673 63.7652 837.005 63.4875 837.223 63.1172C837.446 62.7469 837.558 62.2868 837.558 61.7369C837.558 61.1815 837.446 60.7132 837.223 60.332C837.005 59.9509 836.67 59.6623 836.218 59.4663C835.772 59.2648 835.208 59.1641 834.528 59.1641H832.143V73H828.606ZM837.64 65.3878L841.797 73H837.893L833.825 65.3878H837.64ZM843.7 73V56.2727H847.237V63.6481H847.457L853.477 56.2727H857.716L851.508 63.7624L857.789 73H853.558L848.976 66.1229L847.237 68.2464V73H843.7ZM859.557 73V56.2727H870.829V59.1886H863.094V63.1744H870.249V66.0902H863.094V70.0842H870.861V73H859.557ZM873.64 73V56.2727H877.177V70.0842H884.348V73H873.64ZM890 73H886.21L891.985 56.2727H896.542L902.309 73H898.519L894.329 60.0952H894.198L890 73ZM889.763 66.4251H898.715V69.1857H889.763V66.4251ZM918.313 56.2727V73H915.258L907.981 62.4719H907.859V73H904.322V56.2727H907.426L914.646 66.7926H914.793V56.2727H918.313ZM927.933 56.2727H931.428V67.9361C931.428 69.0142 931.186 69.9508 930.701 70.7457C930.222 71.5407 929.555 72.1533 928.7 72.5835C927.845 73.0136 926.852 73.2287 925.719 73.2287C924.712 73.2287 923.797 73.0517 922.975 72.6978C922.158 72.3384 921.51 71.7939 921.031 71.0643C920.552 70.3292 920.315 69.4062 920.32 68.2955H923.841C923.851 68.7365 923.941 69.1149 924.11 69.4308C924.284 69.7411 924.521 69.9807 924.821 70.1495C925.126 70.3129 925.485 70.3945 925.899 70.3945C926.334 70.3945 926.702 70.302 927.001 70.1168C927.306 69.9263 927.538 69.6486 927.696 69.2837C927.854 68.9189 927.933 68.4697 927.933 67.9361V56.2727ZM944.684 56.2727H948.221V67.1357C948.221 68.3554 947.93 69.4226 947.347 70.3374C946.77 71.2521 945.961 71.9654 944.921 72.4773C943.881 72.9837 942.67 73.2369 941.287 73.2369C939.898 73.2369 938.684 72.9837 937.644 72.4773C936.604 71.9654 935.795 71.2521 935.218 70.3374C934.641 69.4226 934.352 68.3554 934.352 67.1357V56.2727H937.889V66.8335C937.889 67.4705 938.028 68.0368 938.305 68.5323C938.589 69.0278 938.986 69.4171 939.498 69.7003C940.01 69.9834 940.606 70.125 941.287 70.125C941.973 70.125 942.569 69.9834 943.075 69.7003C943.587 69.4171 943.982 69.0278 944.26 68.5323C944.543 68.0368 944.684 67.4705 944.684 66.8335V56.2727ZM950.494 59.1886V56.2727H964.231V59.1886H959.11V73H955.615V59.1886H950.494ZM967.333 73H963.543L969.318 56.2727H973.875L979.642 73H975.852L971.662 60.0952H971.531L967.333 73ZM967.096 66.4251H976.048V69.1857H967.096V66.4251ZM995.646 56.2727V73H992.591L985.314 62.4719H985.192V73H981.655V56.2727H984.759L991.979 66.7926H992.126V56.2727H995.646ZM1002.91 56.2727H1006.87L1010.69 63.4766H1010.85L1014.66 56.2727H1018.63L1012.52 67.0866V73H1009.01V67.0866L1002.91 56.2727ZM1021.73 73H1017.94L1023.72 56.2727H1028.28L1034.04 73H1030.25L1026.06 60.0952H1025.93L1021.73 73ZM1021.5 66.4251H1030.45V69.1857H1021.5V66.4251ZM1050.05 56.2727V73H1046.99L1039.71 62.4719H1039.59V73H1036.06V56.2727H1039.16L1046.38 66.7926H1046.53V56.2727H1050.05ZM1064.06 61.6797C1063.95 61.2822 1063.79 60.931 1063.58 60.6261C1063.37 60.3157 1063.12 60.0543 1062.82 59.842C1062.52 59.6242 1062.19 59.4581 1061.81 59.3438C1061.43 59.2294 1061.01 59.1722 1060.56 59.1722C1059.7 59.1722 1058.95 59.3846 1058.3 59.8093C1057.66 60.234 1057.16 60.852 1056.8 61.6634C1056.44 62.4692 1056.26 63.4548 1056.26 64.62C1056.26 65.7853 1056.44 66.7763 1056.79 67.593C1057.14 68.4098 1057.65 69.0333 1058.29 69.4634C1058.94 69.8881 1059.71 70.1005 1060.59 70.1005C1061.39 70.1005 1062.07 69.9589 1062.64 69.6758C1063.21 69.3872 1063.65 68.9815 1063.95 68.4588C1064.25 67.9361 1064.4 67.3181 1064.4 66.6048L1065.12 66.7109H1060.81V64.0483H1067.81V66.1555C1067.81 67.6257 1067.5 68.889 1066.88 69.9453C1066.26 70.9962 1065.4 71.8075 1064.31 72.3793C1063.22 72.9455 1061.98 73.2287 1060.57 73.2287C1059 73.2287 1057.63 72.8829 1056.44 72.1914C1055.25 71.4944 1054.33 70.5062 1053.66 69.2266C1053 67.9415 1052.67 66.4169 1052.67 64.6527C1052.67 63.2969 1052.87 62.0881 1053.26 61.0263C1053.66 59.959 1054.22 59.0552 1054.93 58.3146C1055.64 57.5741 1056.47 57.0105 1057.42 56.6239C1058.37 56.2373 1059.39 56.044 1060.5 56.044C1061.45 56.044 1062.33 56.1829 1063.15 56.4606C1063.96 56.7328 1064.69 57.1194 1065.32 57.6204C1065.95 58.1213 1066.47 58.7176 1066.88 59.4091C1067.28 60.0952 1067.54 60.852 1067.65 61.6797H1064.06ZM1075.15 59.1886V56.2727H1088.89V59.1886H1083.77V73H1080.27V59.1886H1075.15ZM1091.15 73V56.2727H1102.42V59.1886H1094.69V63.1744H1101.84V66.0902H1094.69V70.0842H1102.46V73H1091.15ZM1105.24 73V56.2727H1111.83C1113.1 56.2727 1114.18 56.4987 1115.07 56.9506C1115.97 57.3971 1116.65 58.0315 1117.12 58.8537C1117.59 59.6705 1117.83 60.6315 1117.83 61.7369C1117.83 62.8477 1117.59 63.8033 1117.11 64.6037C1116.63 65.3987 1115.94 66.0085 1115.03 66.4332C1114.12 66.858 1113.03 67.0703 1111.74 67.0703H1107.33V64.228H1111.17C1111.85 64.228 1112.41 64.1354 1112.86 63.9503C1113.3 63.7652 1113.63 63.4875 1113.85 63.1172C1114.08 62.7469 1114.19 62.2868 1114.19 61.7369C1114.19 61.1815 1114.08 60.7132 1113.85 60.332C1113.63 59.9509 1113.3 59.6623 1112.85 59.4663C1112.4 59.2648 1111.84 59.1641 1111.16 59.1641H1108.77V73H1105.24ZM1114.27 65.3878L1118.43 73H1114.52L1110.45 65.3878H1114.27ZM1123.87 56.2727V73H1120.33V56.2727H1123.87ZM1140.77 56.2727V73H1137.71L1130.43 62.4719H1130.31V73H1126.78V56.2727H1129.88L1137.1 66.7926H1137.25V56.2727H1140.77ZM1143.05 59.1886V56.2727H1156.79V59.1886H1151.67V73H1148.17V59.1886H1143.05ZM1159.05 73V56.2727H1170.32V59.1886H1162.59V63.1744H1169.74V66.0902H1162.59V70.0842H1170.36V73H1159.05ZM1184.23 61.6797C1184.11 61.2822 1183.95 60.931 1183.74 60.6261C1183.54 60.3157 1183.28 60.0543 1182.98 59.842C1182.69 59.6242 1182.35 59.4581 1181.97 59.3438C1181.6 59.2294 1181.18 59.1722 1180.72 59.1722C1179.87 59.1722 1179.12 59.3846 1178.47 59.8093C1177.83 60.234 1177.32 60.852 1176.97 61.6634C1176.61 62.4692 1176.43 63.4548 1176.43 64.62C1176.43 65.7853 1176.6 66.7763 1176.96 67.593C1177.31 68.4098 1177.81 69.0333 1178.46 69.4634C1179.11 69.8881 1179.87 70.1005 1180.75 70.1005C1181.56 70.1005 1182.24 69.9589 1182.8 69.6758C1183.38 69.3872 1183.81 68.9815 1184.11 68.4588C1184.42 67.9361 1184.57 67.3181 1184.57 66.6048L1185.29 66.7109H1180.98V64.0483H1187.98V66.1555C1187.98 67.6257 1187.66 68.889 1187.04 69.9453C1186.42 70.9962 1185.57 71.8075 1184.48 72.3793C1183.39 72.9455 1182.14 73.2287 1180.74 73.2287C1179.17 73.2287 1177.79 72.8829 1176.61 72.1914C1175.42 71.4944 1174.49 70.5062 1173.83 69.2266C1173.17 67.9415 1172.84 66.4169 1172.84 64.6527C1172.84 63.2969 1173.04 62.0881 1173.43 61.0263C1173.83 59.959 1174.38 59.0552 1175.09 58.3146C1175.81 57.5741 1176.64 57.0105 1177.59 56.6239C1178.53 56.2373 1179.56 56.044 1180.67 56.044C1181.61 56.044 1182.49 56.1829 1183.31 56.4606C1184.13 56.7328 1184.85 57.1194 1185.48 57.6204C1186.12 58.1213 1186.64 58.7176 1187.04 59.4091C1187.45 60.0952 1187.71 60.852 1187.82 61.6797H1184.23ZM1190.63 73V56.2727H1197.23C1198.49 56.2727 1199.57 56.4987 1200.47 56.9506C1201.36 57.3971 1202.05 58.0315 1202.52 58.8537C1202.99 59.6705 1203.23 60.6315 1203.23 61.7369C1203.23 62.8477 1202.99 63.8033 1202.51 64.6037C1202.03 65.3987 1201.33 66.0085 1200.42 66.4332C1199.52 66.858 1198.43 67.0703 1197.14 67.0703H1192.72V64.228H1196.57C1197.24 64.228 1197.81 64.1354 1198.25 63.9503C1198.7 63.7652 1199.03 63.4875 1199.25 63.1172C1199.47 62.7469 1199.58 62.2868 1199.58 61.7369C1199.58 61.1815 1199.47 60.7132 1199.25 60.332C1199.03 59.9509 1198.7 59.6623 1198.24 59.4663C1197.8 59.2648 1197.23 59.1641 1196.55 59.1641H1194.17V73H1190.63ZM1199.66 65.3878L1203.82 73H1199.92L1195.85 65.3878H1199.66ZM1208.61 73H1204.82L1210.59 56.2727H1215.15L1220.92 73H1217.13L1212.94 60.0952H1212.81L1208.61 73ZM1208.37 66.4251H1217.32V69.1857H1208.37V66.4251ZM1231.62 61.0835C1231.56 60.4246 1231.28 59.9128 1230.78 59.5479C1230.29 59.1831 1229.61 59.0007 1228.76 59.0007C1228.19 59.0007 1227.7 59.0824 1227.3 59.2457C1226.9 59.4036 1226.6 59.6242 1226.39 59.9073C1226.18 60.1905 1226.08 60.5117 1226.08 60.8711C1226.07 61.1706 1226.13 61.4319 1226.26 61.6552C1226.41 61.8784 1226.6 62.0717 1226.84 62.2351C1227.09 62.393 1227.37 62.5318 1227.69 62.6516C1228.02 62.766 1228.36 62.864 1228.72 62.9457L1230.23 63.305C1230.96 63.4684 1231.63 63.6862 1232.24 63.9585C1232.85 64.2307 1233.37 64.5656 1233.82 64.9631C1234.27 65.3606 1234.61 65.8288 1234.86 66.3679C1235.11 66.907 1235.24 67.525 1235.24 68.2219C1235.24 69.2456 1234.97 70.1332 1234.46 70.8846C1233.95 71.6306 1233.2 72.2105 1232.24 72.6243C1231.27 73.0327 1230.11 73.2369 1228.75 73.2369C1227.4 73.2369 1226.22 73.0299 1225.22 72.6161C1224.22 72.2023 1223.44 71.5897 1222.88 70.7784C1222.33 69.9616 1222.04 68.9516 1222.01 67.7482H1225.43C1225.47 68.3091 1225.63 68.7773 1225.91 69.1531C1226.2 69.5233 1226.59 69.8037 1227.07 69.9943C1227.55 70.1795 1228.1 70.272 1228.71 70.272C1229.31 70.272 1229.83 70.1849 1230.27 70.0107C1230.71 69.8364 1231.06 69.5941 1231.3 69.2837C1231.55 68.9734 1231.67 68.6167 1231.67 68.2138C1231.67 67.8381 1231.56 67.5223 1231.34 67.2663C1231.12 67.0104 1230.8 66.7926 1230.37 66.6129C1229.95 66.4332 1229.44 66.2699 1228.83 66.1229L1227.01 65.6655C1225.6 65.3224 1224.48 64.7861 1223.67 64.0565C1222.85 63.3268 1222.45 62.344 1222.45 61.108C1222.45 60.0952 1222.71 59.2103 1223.26 58.4535C1223.81 57.6966 1224.56 57.1058 1225.52 56.6811C1226.48 56.2564 1227.57 56.044 1228.79 56.044C1230.03 56.044 1231.11 56.2564 1232.04 56.6811C1232.97 57.1058 1233.69 57.6966 1234.21 58.4535C1234.73 59.2103 1235 60.087 1235.01 61.0835H1231.62ZM1241.16 56.2727V73H1237.62V56.2727H1241.16Z" fill="white"/>
</svg>
