<svg width="357" height="42" viewBox="0 0 357 42" fill="none" xmlns="http://www.w3.org/2000/svg">
<path d="M5.75711 8.18C5.75711 9.94 6.43711 11.58 7.79711 13.1C9.19711 14.58 10.8771 15.9 12.8371 17.06C14.8371 18.18 16.8171 19.34 18.7771 20.54C20.7371 21.7 22.3971 23.14 23.7571 24.86C25.1571 26.58 25.8571 28.48 25.8571 30.56C25.8571 33.84 24.6371 36.52 22.1971 38.6C19.7971 40.68 16.5371 41.72 12.4171 41.72C8.29711 41.72 4.21711 40.94 0.17711 39.38V36.56C4.25711 38.6 7.71711 39.62 10.5571 39.62C13.4371 39.62 15.6771 38.92 17.2771 37.52C18.8771 36.12 19.6771 34.18 19.6771 31.7C19.6771 30.02 19.0171 28.5 17.6971 27.14C16.3771 25.74 14.7771 24.54 12.8971 23.54C11.0171 22.5 9.13711 21.44 7.25711 20.36C5.37711 19.28 3.77711 17.92 2.45711 16.28C1.13711 14.6 0.477109 12.58 0.477109 10.22C0.477109 7.86 1.51711 5.66 3.59711 3.62C5.71711 1.58 8.85711 0.559999 13.0171 0.559999C15.7371 0.559999 19.1771 1.18 23.3371 2.42L22.7371 6.5C17.3371 4.18 12.7171 3.02 8.87711 3.02C6.79711 4.02 5.75711 5.74 5.75711 8.18ZM67.297 1.28V25.64C67.297 29.36 66.897 32.16 66.097 34.04C65.737 34.88 65.157 35.84 64.357 36.92C63.597 37.96 62.697 38.8 61.657 39.44C59.017 40.96 55.717 41.72 51.757 41.72C41.837 41.72 36.877 36.62 36.877 26.42V1.28H42.997V26.9C42.997 28.06 43.017 29 43.057 29.72C43.097 30.44 43.297 31.46 43.657 32.78C44.057 34.1 44.577 35.16 45.217 35.96C45.897 36.76 46.937 37.48 48.337 38.12C49.777 38.76 51.477 39.08 53.437 39.08C60.917 39.08 64.657 35.08 64.657 27.08V1.28H67.297ZM84.5305 8.18C84.5305 9.94 85.2105 11.58 86.5705 13.1C87.9705 14.58 89.6505 15.9 91.6105 17.06C93.6105 18.18 95.5905 19.34 97.5505 20.54C99.5105 21.7 101.171 23.14 102.531 24.86C103.931 26.58 104.631 28.48 104.631 30.56C104.631 33.84 103.411 36.52 100.971 38.6C98.5705 40.68 95.3105 41.72 91.1905 41.72C87.0705 41.72 82.9905 40.94 78.9505 39.38V36.56C83.0305 38.6 86.4905 39.62 89.3305 39.62C92.2105 39.62 94.4505 38.92 96.0505 37.52C97.6505 36.12 98.4505 34.18 98.4505 31.7C98.4505 30.02 97.7905 28.5 96.4705 27.14C95.1505 25.74 93.5505 24.54 91.6705 23.54C89.7905 22.5 87.9105 21.44 86.0305 20.36C84.1505 19.28 82.5505 17.92 81.2305 16.28C79.9105 14.6 79.2505 12.58 79.2505 10.22C79.2505 7.86 80.2905 5.66 82.3705 3.62C84.4905 1.58 87.6305 0.559999 91.7905 0.559999C94.5105 0.559999 97.9505 1.18 102.111 2.42L101.511 6.5C96.1105 4.18 91.4905 3.02 87.6505 3.02C85.5705 4.02 84.5305 5.74 84.5305 8.18ZM130.11 41H124.29V4.16C122.93 3.84 121.57 3.68 120.21 3.68L112.11 5.54L111.75 1.28H142.65L142.35 5.54L134.19 3.68C132.83 3.68 131.47 3.84 130.11 4.16V41ZM151.66 41V1.28H175.72L175.12 5.3L163.96 3.44C162 3.44 159.84 3.78 157.48 4.46V19.04H170.8V21.32H157.48V38.84L176.08 36.98L175.48 41H151.66ZM218.531 41.66H217.511L191.231 8.78H190.991V41H188.351V1.28H192.791L215.651 30.14H215.891V1.28H218.531V41.66ZM227.508 41L245.328 0.319998H246.228L264.048 41H257.508L253.008 30.2H235.188L230.748 41H227.508ZM236.088 27.92H252.048L244.128 8.48L236.088 27.92ZM273.043 41V1.28H278.923V37.76C281.363 38.48 283.323 38.84 284.803 38.84L295.663 36.98L294.943 41H273.043ZM310.801 1.28V41H305.281V1.28H310.801ZM319.829 41L337.649 0.319998H338.549L356.369 41H349.829L345.329 30.2H327.509L323.069 41H319.829ZM328.409 27.92H344.369L336.449 8.48L328.409 27.92Z" fill="url(#paint0_linear_89_150)"/>
<defs>
<linearGradient id="paint0_linear_89_150" x1="176.5" y1="-15" x2="176.5" y2="55" gradientUnits="userSpaceOnUse">
<stop offset="0.208333" stop-color="#D5FFAA"/>
<stop offset="0.9999" stop-color="#00FF94"/>
<stop offset="1" stop-color="#00FF94" stop-opacity="0"/>
</linearGradient>
</defs>
</svg>
