<svg width="23" height="25" viewBox="0 0 23 25" fill="none" xmlns="http://www.w3.org/2000/svg">
<path d="M9.02171 0.0143195L22.1646 2.3233C22.3596 2.35757 22.5354 2.45164 22.6617 2.58942C22.788 2.7272 22.8571 2.90012 22.8571 3.07859V21.5504C22.8571 21.7289 22.788 21.9018 22.6617 22.0396C22.5354 22.1774 22.3596 22.2715 22.1646 22.3057L9.02171 24.6147C8.89756 24.6365 8.76957 24.6334 8.64692 24.6055C8.52428 24.5777 8.41002 24.5258 8.31236 24.4536C8.21469 24.3814 8.13603 24.2907 8.08202 24.1879C8.02802 24.0852 8.00001 23.973 8 23.8594V0.769613C8.00001 0.656017 8.02802 0.54383 8.08202 0.441104C8.13603 0.338378 8.21469 0.24766 8.31236 0.17546C8.41002 0.103259 8.52428 0.0513671 8.64692 0.0235068C8.76957 -0.0043534 8.89756 -0.00749099 9.02171 0.0143195V0.0143195ZM12.5714 11.2883C12.2683 11.2883 11.9776 11.3964 11.7633 11.5889C11.549 11.7813 11.4286 12.0424 11.4286 12.3145C11.4286 12.5867 11.549 12.8477 11.7633 13.0402C11.9776 13.2326 12.2683 13.3407 12.5714 13.3407C12.8745 13.3407 13.1652 13.2326 13.3796 13.0402C13.5939 12.8477 13.7143 12.5867 13.7143 12.3145C13.7143 12.0424 13.5939 11.7813 13.3796 11.5889C13.1652 11.3964 12.8745 11.2883 12.5714 11.2883ZM6.85714 2.56549V22.0636H0.857143C0.650014 22.0635 0.449895 21.9962 0.293794 21.8739C0.137693 21.7517 0.0361695 21.5828 0.00799997 21.3986L0 21.2939V3.33515C8.73474e-06 3.14916 0.0750204 2.96947 0.211163 2.8293C0.347305 2.68913 0.535367 2.59797 0.740571 2.57267L0.857143 2.56549H6.85714Z" fill="black"/>
</svg>
